<!-- generated by scripts/assets.py from data/processed/resolution_audit.csv. do not edit by hand. -->
<svg xmlns="http://www.w3.org/2000/svg" viewBox="0 0 742 252" width="100%" role="img" aria-labelledby="sf-t sf-d" font-family="Archivo, system-ui, sans-serif">
<title id="sf-t">Every bankruptcy candidate, by filing year and outcome</title>
<desc id="sf-d">346 candidates, one square each, grouped into the year of filing. Block width tracks how many firms failed that year. Colour and texture show whether the firm could be matched to a traded security.</desc>
<defs><pattern id="hatch" width="4" height="4" patternUnits="userSpaceOnUse" patternTransform="rotate(45)"><rect width="4" height="4" fill="var(--fig-recessive, #E8DCD6)"/><line x1="0" y1="0" x2="0" y2="4" stroke="var(--fig-third, #6B3F23)" stroke-width="2.2"/></pattern></defs>
<rect x="24" y="165" width="9" height="9" fill="var(--fig-primary, #A81C2A)"/>
<rect x="24" y="154" width="9" height="9" fill="var(--fig-primary, #A81C2A)"/>
<rect x="24" y="143" width="9" height="9" fill="var(--fig-primary, #A81C2A)"/>
<rect x="24" y="132" width="9" height="9" fill="var(--fig-recessive, #E8DCD6)"/>
<rect x="24" y="121" width="9" height="9" fill="var(--fig-recessive, #E8DCD6)"/>
<rect x="24" y="110" width="9" height="9" fill="var(--fig-recessive, #E8DCD6)"/>
<rect x="24" y="99" width="9" height="9" fill="var(--fig-recessive, #E8DCD6)"/>
<rect x="24" y="88" width="9" height="9" fill="var(--fig-recessive, #E8DCD6)"/>
<rect x="35" y="165" width="9" height="9" fill="var(--fig-recessive, #E8DCD6)"/>
<rect x="35" y="154" width="9" height="9" fill="var(--fig-recessive, #E8DCD6)"/>
<rect x="35" y="143" width="9" height="9" fill="var(--fig-recessive, #E8DCD6)"/>
<rect x="35" y="132" width="9" height="9" fill="var(--fig-recessive, #E8DCD6)"/>
<rect x="35" y="121" width="9" height="9" fill="var(--fig-recessive, #E8DCD6)"/>
<rect x="35" y="110" width="9" height="9" fill="var(--fig-recessive, #E8DCD6)"/>
<rect x="35" y="99" width="9" height="9" fill="var(--fig-recessive, #E8DCD6)"/>
<rect x="35" y="88" width="9" height="9" fill="var(--fig-recessive, #E8DCD6)"/>
<rect x="46" y="165" width="9" height="9" fill="var(--fig-recessive, #E8DCD6)"/>
<rect x="46" y="154" width="9" height="9" fill="var(--fig-recessive, #E8DCD6)"/>
<rect x="46" y="143" width="9" height="9" fill="var(--fig-recessive, #E8DCD6)"/>
<rect x="46" y="132" width="9" height="9" fill="var(--fig-recessive, #E8DCD6)"/>
<rect x="46" y="121" width="9" height="9" fill="var(--fig-recessive, #E8DCD6)"/>
<rect x="46" y="110" width="9" height="9" fill="var(--fig-recessive, #E8DCD6)"/>
<rect x="46" y="99" width="9" height="9" fill="var(--fig-recessive, #E8DCD6)"/>
<rect x="46" y="88" width="9" height="9" fill="var(--fig-recessive, #E8DCD6)"/>
<rect x="57" y="165" width="9" height="9" fill="url(#hatch)"/>
<rect x="80" y="165" width="9" height="9" fill="var(--fig-primary, #A81C2A)"/>
<rect x="80" y="154" width="9" height="9" fill="var(--fig-primary, #A81C2A)"/>
<rect x="80" y="143" width="9" height="9" fill="var(--fig-primary, #A81C2A)"/>
<rect x="80" y="132" width="9" height="9" fill="var(--fig-recessive, #E8DCD6)"/>
<rect x="80" y="121" width="9" height="9" fill="var(--fig-recessive, #E8DCD6)"/>
<rect x="80" y="110" width="9" height="9" fill="var(--fig-recessive, #E8DCD6)"/>
<rect x="80" y="99" width="9" height="9" fill="var(--fig-recessive, #E8DCD6)"/>
<rect x="80" y="88" width="9" height="9" fill="var(--fig-recessive, #E8DCD6)"/>
<rect x="91" y="165" width="9" height="9" fill="var(--fig-recessive, #E8DCD6)"/>
<rect x="91" y="154" width="9" height="9" fill="var(--fig-recessive, #E8DCD6)"/>
<rect x="91" y="143" width="9" height="9" fill="var(--fig-recessive, #E8DCD6)"/>
<rect x="91" y="132" width="9" height="9" fill="var(--fig-recessive, #E8DCD6)"/>
<rect x="91" y="121" width="9" height="9" fill="var(--fig-recessive, #E8DCD6)"/>
<rect x="91" y="110" width="9" height="9" fill="var(--fig-recessive, #E8DCD6)"/>
<rect x="91" y="99" width="9" height="9" fill="var(--fig-recessive, #E8DCD6)"/>
<rect x="91" y="88" width="9" height="9" fill="var(--fig-recessive, #E8DCD6)"/>
<rect x="102" y="165" width="9" height="9" fill="var(--fig-recessive, #E8DCD6)"/>
<rect x="102" y="154" width="9" height="9" fill="var(--fig-recessive, #E8DCD6)"/>
<rect x="102" y="143" width="9" height="9" fill="var(--fig-recessive, #E8DCD6)"/>
<rect x="102" y="132" width="9" height="9" fill="var(--fig-recessive, #E8DCD6)"/>
<rect x="102" y="121" width="9" height="9" fill="var(--fig-recessive, #E8DCD6)"/>
<rect x="102" y="110" width="9" height="9" fill="var(--fig-recessive, #E8DCD6)"/>
<rect x="125" y="165" width="9" height="9" fill="var(--fig-primary, #A81C2A)"/>
<rect x="125" y="154" width="9" height="9" fill="var(--fig-primary, #A81C2A)"/>
<rect x="125" y="143" width="9" height="9" fill="var(--fig-primary, #A81C2A)"/>
<rect x="125" y="132" width="9" height="9" fill="var(--fig-primary, #A81C2A)"/>
<rect x="125" y="121" width="9" height="9" fill="var(--fig-recessive, #E8DCD6)"/>
<rect x="125" y="110" width="9" height="9" fill="var(--fig-recessive, #E8DCD6)"/>
<rect x="125" y="99" width="9" height="9" fill="var(--fig-recessive, #E8DCD6)"/>
<rect x="125" y="88" width="9" height="9" fill="var(--fig-recessive, #E8DCD6)"/>
<rect x="136" y="165" width="9" height="9" fill="var(--fig-recessive, #E8DCD6)"/>
<rect x="136" y="154" width="9" height="9" fill="var(--fig-recessive, #E8DCD6)"/>
<rect x="136" y="143" width="9" height="9" fill="var(--fig-recessive, #E8DCD6)"/>
<rect x="136" y="132" width="9" height="9" fill="var(--fig-recessive, #E8DCD6)"/>
<rect x="136" y="121" width="9" height="9" fill="var(--fig-recessive, #E8DCD6)"/>
<rect x="136" y="110" width="9" height="9" fill="var(--fig-recessive, #E8DCD6)"/>
<rect x="136" y="99" width="9" height="9" fill="var(--fig-recessive, #E8DCD6)"/>
<rect x="136" y="88" width="9" height="9" fill="var(--fig-recessive, #E8DCD6)"/>
<rect x="147" y="165" width="9" height="9" fill="var(--fig-recessive, #E8DCD6)"/>
<rect x="147" y="154" width="9" height="9" fill="var(--fig-recessive, #E8DCD6)"/>
<rect x="147" y="143" width="9" height="9" fill="var(--fig-recessive, #E8DCD6)"/>
<rect x="147" y="132" width="9" height="9" fill="var(--fig-recessive, #E8DCD6)"/>
<rect x="147" y="121" width="9" height="9" fill="var(--fig-recessive, #E8DCD6)"/>
<rect x="147" y="110" width="9" height="9" fill="var(--fig-recessive, #E8DCD6)"/>
<rect x="147" y="99" width="9" height="9" fill="var(--fig-recessive, #E8DCD6)"/>
<rect x="147" y="88" width="9" height="9" fill="var(--fig-recessive, #E8DCD6)"/>
<rect x="158" y="165" width="9" height="9" fill="var(--fig-recessive, #E8DCD6)"/>
<rect x="181" y="165" width="9" height="9" fill="var(--fig-primary, #A81C2A)"/>
<rect x="181" y="154" width="9" height="9" fill="var(--fig-primary, #A81C2A)"/>
<rect x="181" y="143" width="9" height="9" fill="var(--fig-primary, #A81C2A)"/>
<rect x="181" y="132" width="9" height="9" fill="var(--fig-primary, #A81C2A)"/>
<rect x="181" y="121" width="9" height="9" fill="var(--fig-recessive, #E8DCD6)"/>
<rect x="181" y="110" width="9" height="9" fill="var(--fig-recessive, #E8DCD6)"/>
<rect x="181" y="99" width="9" height="9" fill="var(--fig-recessive, #E8DCD6)"/>
<rect x="181" y="88" width="9" height="9" fill="var(--fig-recessive, #E8DCD6)"/>
<rect x="192" y="165" width="9" height="9" fill="var(--fig-recessive, #E8DCD6)"/>
<rect x="192" y="154" width="9" height="9" fill="var(--fig-recessive, #E8DCD6)"/>
<rect x="192" y="143" width="9" height="9" fill="var(--fig-recessive, #E8DCD6)"/>
<rect x="192" y="132" width="9" height="9" fill="var(--fig-recessive, #E8DCD6)"/>
<rect x="192" y="121" width="9" height="9" fill="var(--fig-recessive, #E8DCD6)"/>
<rect x="192" y="110" width="9" height="9" fill="var(--fig-recessive, #E8DCD6)"/>
<rect x="192" y="99" width="9" height="9" fill="var(--fig-recessive, #E8DCD6)"/>
<rect x="192" y="88" width="9" height="9" fill="var(--fig-recessive, #E8DCD6)"/>
<rect x="203" y="165" width="9" height="9" fill="var(--fig-recessive, #E8DCD6)"/>
<rect x="203" y="154" width="9" height="9" fill="var(--fig-recessive, #E8DCD6)"/>
<rect x="203" y="143" width="9" height="9" fill="var(--fig-recessive, #E8DCD6)"/>
<rect x="203" y="132" width="9" height="9" fill="var(--fig-recessive, #E8DCD6)"/>
<rect x="203" y="121" width="9" height="9" fill="url(#hatch)"/>
<rect x="203" y="110" width="9" height="9" fill="url(#hatch)"/>
<rect x="226" y="165" width="9" height="9" fill="var(--fig-primary, #A81C2A)"/>
<rect x="226" y="154" width="9" height="9" fill="var(--fig-primary, #A81C2A)"/>
<rect x="226" y="143" width="9" height="9" fill="var(--fig-primary, #A81C2A)"/>
<rect x="226" y="132" width="9" height="9" fill="var(--fig-primary, #A81C2A)"/>
<rect x="226" y="121" width="9" height="9" fill="var(--fig-primary, #A81C2A)"/>
<rect x="226" y="110" width="9" height="9" fill="var(--fig-primary, #A81C2A)"/>
<rect x="226" y="99" width="9" height="9" fill="var(--fig-recessive, #E8DCD6)"/>
<rect x="226" y="88" width="9" height="9" fill="var(--fig-recessive, #E8DCD6)"/>
<rect x="237" y="165" width="9" height="9" fill="var(--fig-recessive, #E8DCD6)"/>
<rect x="237" y="154" width="9" height="9" fill="var(--fig-recessive, #E8DCD6)"/>
<rect x="237" y="143" width="9" height="9" fill="var(--fig-recessive, #E8DCD6)"/>
<rect x="237" y="132" width="9" height="9" fill="var(--fig-recessive, #E8DCD6)"/>
<rect x="237" y="121" width="9" height="9" fill="var(--fig-recessive, #E8DCD6)"/>
<rect x="237" y="110" width="9" height="9" fill="var(--fig-recessive, #E8DCD6)"/>
<rect x="237" y="99" width="9" height="9" fill="var(--fig-recessive, #E8DCD6)"/>
<rect x="237" y="88" width="9" height="9" fill="var(--fig-recessive, #E8DCD6)"/>
<rect x="248" y="165" width="9" height="9" fill="var(--fig-recessive, #E8DCD6)"/>
<rect x="248" y="154" width="9" height="9" fill="var(--fig-recessive, #E8DCD6)"/>
<rect x="248" y="143" width="9" height="9" fill="var(--fig-recessive, #E8DCD6)"/>
<rect x="248" y="132" width="9" height="9" fill="var(--fig-recessive, #E8DCD6)"/>
<rect x="248" y="121" width="9" height="9" fill="var(--fig-recessive, #E8DCD6)"/>
<rect x="248" y="110" width="9" height="9" fill="var(--fig-recessive, #E8DCD6)"/>
<rect x="248" y="99" width="9" height="9" fill="var(--fig-recessive, #E8DCD6)"/>
<rect x="248" y="88" width="9" height="9" fill="var(--fig-recessive, #E8DCD6)"/>
<rect x="271" y="165" width="9" height="9" fill="var(--fig-primary, #A81C2A)"/>
<rect x="271" y="154" width="9" height="9" fill="var(--fig-primary, #A81C2A)"/>
<rect x="271" y="143" width="9" height="9" fill="var(--fig-primary, #A81C2A)"/>
<rect x="271" y="132" width="9" height="9" fill="var(--fig-primary, #A81C2A)"/>
<rect x="271" y="121" width="9" height="9" fill="var(--fig-primary, #A81C2A)"/>
<rect x="271" y="110" width="9" height="9" fill="var(--fig-primary, #A81C2A)"/>
<rect x="271" y="99" width="9" height="9" fill="var(--fig-primary, #A81C2A)"/>
<rect x="271" y="88" width="9" height="9" fill="var(--fig-primary, #A81C2A)"/>
<rect x="282" y="165" width="9" height="9" fill="var(--fig-primary, #A81C2A)"/>
<rect x="282" y="154" width="9" height="9" fill="var(--fig-primary, #A81C2A)"/>
<rect x="282" y="143" width="9" height="9" fill="var(--fig-recessive, #E8DCD6)"/>
<rect x="282" y="132" width="9" height="9" fill="var(--fig-recessive, #E8DCD6)"/>
<rect x="282" y="121" width="9" height="9" fill="var(--fig-recessive, #E8DCD6)"/>
<rect x="282" y="110" width="9" height="9" fill="var(--fig-recessive, #E8DCD6)"/>
<rect x="282" y="99" width="9" height="9" fill="var(--fig-recessive, #E8DCD6)"/>
<rect x="282" y="88" width="9" height="9" fill="var(--fig-recessive, #E8DCD6)"/>
<rect x="293" y="165" width="9" height="9" fill="var(--fig-recessive, #E8DCD6)"/>
<rect x="293" y="154" width="9" height="9" fill="var(--fig-recessive, #E8DCD6)"/>
<rect x="293" y="143" width="9" height="9" fill="var(--fig-recessive, #E8DCD6)"/>
<rect x="293" y="132" width="9" height="9" fill="var(--fig-recessive, #E8DCD6)"/>
<rect x="293" y="121" width="9" height="9" fill="var(--fig-recessive, #E8DCD6)"/>
<rect x="293" y="110" width="9" height="9" fill="var(--fig-recessive, #E8DCD6)"/>
<rect x="293" y="99" width="9" height="9" fill="var(--fig-recessive, #E8DCD6)"/>
<rect x="293" y="88" width="9" height="9" fill="var(--fig-recessive, #E8DCD6)"/>
<rect x="316" y="165" width="9" height="9" fill="var(--fig-primary, #A81C2A)"/>
<rect x="316" y="154" width="9" height="9" fill="var(--fig-primary, #A81C2A)"/>
<rect x="316" y="143" width="9" height="9" fill="var(--fig-primary, #A81C2A)"/>
<rect x="316" y="132" width="9" height="9" fill="var(--fig-primary, #A81C2A)"/>
<rect x="316" y="121" width="9" height="9" fill="var(--fig-primary, #A81C2A)"/>
<rect x="316" y="110" width="9" height="9" fill="var(--fig-primary, #A81C2A)"/>
<rect x="316" y="99" width="9" height="9" fill="var(--fig-primary, #A81C2A)"/>
<rect x="316" y="88" width="9" height="9" fill="var(--fig-primary, #A81C2A)"/>
<rect x="327" y="165" width="9" height="9" fill="var(--fig-primary, #A81C2A)"/>
<rect x="327" y="154" width="9" height="9" fill="var(--fig-primary, #A81C2A)"/>
<rect x="327" y="143" width="9" height="9" fill="var(--fig-recessive, #E8DCD6)"/>
<rect x="327" y="132" width="9" height="9" fill="var(--fig-recessive, #E8DCD6)"/>
<rect x="327" y="121" width="9" height="9" fill="var(--fig-recessive, #E8DCD6)"/>
<rect x="327" y="110" width="9" height="9" fill="var(--fig-recessive, #E8DCD6)"/>
<rect x="327" y="99" width="9" height="9" fill="var(--fig-recessive, #E8DCD6)"/>
<rect x="327" y="88" width="9" height="9" fill="var(--fig-recessive, #E8DCD6)"/>
<rect x="338" y="165" width="9" height="9" fill="var(--fig-recessive, #E8DCD6)"/>
<rect x="338" y="154" width="9" height="9" fill="var(--fig-recessive, #E8DCD6)"/>
<rect x="338" y="143" width="9" height="9" fill="var(--fig-recessive, #E8DCD6)"/>
<rect x="338" y="132" width="9" height="9" fill="var(--fig-recessive, #E8DCD6)"/>
<rect x="338" y="121" width="9" height="9" fill="var(--fig-recessive, #E8DCD6)"/>
<rect x="338" y="110" width="9" height="9" fill="var(--fig-recessive, #E8DCD6)"/>
<rect x="338" y="99" width="9" height="9" fill="var(--fig-recessive, #E8DCD6)"/>
<rect x="338" y="88" width="9" height="9" fill="url(#hatch)"/>
<rect x="361" y="165" width="9" height="9" fill="var(--fig-primary, #A81C2A)"/>
<rect x="361" y="154" width="9" height="9" fill="var(--fig-primary, #A81C2A)"/>
<rect x="361" y="143" width="9" height="9" fill="var(--fig-primary, #A81C2A)"/>
<rect x="361" y="132" width="9" height="9" fill="var(--fig-primary, #A81C2A)"/>
<rect x="361" y="121" width="9" height="9" fill="var(--fig-primary, #A81C2A)"/>
<rect x="361" y="110" width="9" height="9" fill="var(--fig-primary, #A81C2A)"/>
<rect x="361" y="99" width="9" height="9" fill="var(--fig-primary, #A81C2A)"/>
<rect x="361" y="88" width="9" height="9" fill="var(--fig-primary, #A81C2A)"/>
<rect x="372" y="165" width="9" height="9" fill="var(--fig-primary, #A81C2A)"/>
<rect x="372" y="154" width="9" height="9" fill="var(--fig-primary, #A81C2A)"/>
<rect x="372" y="143" width="9" height="9" fill="var(--fig-primary, #A81C2A)"/>
<rect x="372" y="132" width="9" height="9" fill="var(--fig-primary, #A81C2A)"/>
<rect x="372" y="121" width="9" height="9" fill="var(--fig-primary, #A81C2A)"/>
<rect x="372" y="110" width="9" height="9" fill="var(--fig-primary, #A81C2A)"/>
<rect x="372" y="99" width="9" height="9" fill="var(--fig-recessive, #E8DCD6)"/>
<rect x="372" y="88" width="9" height="9" fill="var(--fig-recessive, #E8DCD6)"/>
<rect x="383" y="165" width="9" height="9" fill="var(--fig-recessive, #E8DCD6)"/>
<rect x="383" y="154" width="9" height="9" fill="var(--fig-recessive, #E8DCD6)"/>
<rect x="383" y="143" width="9" height="9" fill="var(--fig-recessive, #E8DCD6)"/>
<rect x="383" y="132" width="9" height="9" fill="var(--fig-recessive, #E8DCD6)"/>
<rect x="383" y="121" width="9" height="9" fill="var(--fig-recessive, #E8DCD6)"/>
<rect x="383" y="110" width="9" height="9" fill="var(--fig-recessive, #E8DCD6)"/>
<rect x="383" y="99" width="9" height="9" fill="var(--fig-recessive, #E8DCD6)"/>
<rect x="383" y="88" width="9" height="9" fill="url(#hatch)"/>
<rect x="406" y="165" width="9" height="9" fill="var(--fig-primary, #A81C2A)"/>
<rect x="406" y="154" width="9" height="9" fill="var(--fig-primary, #A81C2A)"/>
<rect x="406" y="143" width="9" height="9" fill="var(--fig-primary, #A81C2A)"/>
<rect x="406" y="132" width="9" height="9" fill="var(--fig-primary, #A81C2A)"/>
<rect x="406" y="121" width="9" height="9" fill="var(--fig-primary, #A81C2A)"/>
<rect x="406" y="110" width="9" height="9" fill="var(--fig-primary, #A81C2A)"/>
<rect x="406" y="99" width="9" height="9" fill="var(--fig-primary, #A81C2A)"/>
<rect x="406" y="88" width="9" height="9" fill="var(--fig-primary, #A81C2A)"/>
<rect x="417" y="165" width="9" height="9" fill="var(--fig-primary, #A81C2A)"/>
<rect x="417" y="154" width="9" height="9" fill="var(--fig-primary, #A81C2A)"/>
<rect x="417" y="143" width="9" height="9" fill="var(--fig-primary, #A81C2A)"/>
<rect x="417" y="132" width="9" height="9" fill="var(--fig-primary, #A81C2A)"/>
<rect x="417" y="121" width="9" height="9" fill="var(--fig-recessive, #E8DCD6)"/>
<rect x="417" y="110" width="9" height="9" fill="var(--fig-recessive, #E8DCD6)"/>
<rect x="417" y="99" width="9" height="9" fill="var(--fig-recessive, #E8DCD6)"/>
<rect x="417" y="88" width="9" height="9" fill="var(--fig-recessive, #E8DCD6)"/>
<rect x="428" y="165" width="9" height="9" fill="var(--fig-recessive, #E8DCD6)"/>
<rect x="428" y="154" width="9" height="9" fill="var(--fig-recessive, #E8DCD6)"/>
<rect x="428" y="143" width="9" height="9" fill="var(--fig-recessive, #E8DCD6)"/>
<rect x="428" y="132" width="9" height="9" fill="var(--fig-recessive, #E8DCD6)"/>
<rect x="428" y="121" width="9" height="9" fill="var(--fig-recessive, #E8DCD6)"/>
<rect x="428" y="110" width="9" height="9" fill="var(--fig-recessive, #E8DCD6)"/>
<rect x="428" y="99" width="9" height="9" fill="var(--fig-recessive, #E8DCD6)"/>
<rect x="428" y="88" width="9" height="9" fill="url(#hatch)"/>
<rect x="451" y="165" width="9" height="9" fill="var(--fig-primary, #A81C2A)"/>
<rect x="451" y="154" width="9" height="9" fill="var(--fig-primary, #A81C2A)"/>
<rect x="451" y="143" width="9" height="9" fill="var(--fig-primary, #A81C2A)"/>
<rect x="451" y="132" width="9" height="9" fill="var(--fig-primary, #A81C2A)"/>
<rect x="451" y="121" width="9" height="9" fill="var(--fig-primary, #A81C2A)"/>
<rect x="451" y="110" width="9" height="9" fill="var(--fig-primary, #A81C2A)"/>
<rect x="451" y="99" width="9" height="9" fill="var(--fig-primary, #A81C2A)"/>
<rect x="451" y="88" width="9" height="9" fill="var(--fig-primary, #A81C2A)"/>
<rect x="462" y="165" width="9" height="9" fill="var(--fig-primary, #A81C2A)"/>
<rect x="462" y="154" width="9" height="9" fill="var(--fig-primary, #A81C2A)"/>
<rect x="462" y="143" width="9" height="9" fill="var(--fig-primary, #A81C2A)"/>
<rect x="462" y="132" width="9" height="9" fill="var(--fig-primary, #A81C2A)"/>
<rect x="462" y="121" width="9" height="9" fill="var(--fig-primary, #A81C2A)"/>
<rect x="462" y="110" width="9" height="9" fill="var(--fig-primary, #A81C2A)"/>
<rect x="462" y="99" width="9" height="9" fill="var(--fig-primary, #A81C2A)"/>
<rect x="462" y="88" width="9" height="9" fill="var(--fig-primary, #A81C2A)"/>
<rect x="473" y="165" width="9" height="9" fill="var(--fig-recessive, #E8DCD6)"/>
<rect x="473" y="154" width="9" height="9" fill="var(--fig-recessive, #E8DCD6)"/>
<rect x="473" y="143" width="9" height="9" fill="var(--fig-recessive, #E8DCD6)"/>
<rect x="473" y="132" width="9" height="9" fill="var(--fig-recessive, #E8DCD6)"/>
<rect x="473" y="121" width="9" height="9" fill="var(--fig-recessive, #E8DCD6)"/>
<rect x="473" y="110" width="9" height="9" fill="url(#hatch)"/>
<rect x="496" y="165" width="9" height="9" fill="var(--fig-primary, #A81C2A)"/>
<rect x="496" y="154" width="9" height="9" fill="var(--fig-primary, #A81C2A)"/>
<rect x="496" y="143" width="9" height="9" fill="var(--fig-primary, #A81C2A)"/>
<rect x="496" y="132" width="9" height="9" fill="var(--fig-primary, #A81C2A)"/>
<rect x="496" y="121" width="9" height="9" fill="var(--fig-primary, #A81C2A)"/>
<rect x="496" y="110" width="9" height="9" fill="var(--fig-primary, #A81C2A)"/>
<rect x="496" y="99" width="9" height="9" fill="var(--fig-primary, #A81C2A)"/>
<rect x="496" y="88" width="9" height="9" fill="var(--fig-primary, #A81C2A)"/>
<rect x="507" y="165" width="9" height="9" fill="var(--fig-primary, #A81C2A)"/>
<rect x="507" y="154" width="9" height="9" fill="var(--fig-primary, #A81C2A)"/>
<rect x="507" y="143" width="9" height="9" fill="var(--fig-primary, #A81C2A)"/>
<rect x="507" y="132" width="9" height="9" fill="var(--fig-primary, #A81C2A)"/>
<rect x="507" y="121" width="9" height="9" fill="var(--fig-recessive, #E8DCD6)"/>
<rect x="507" y="110" width="9" height="9" fill="var(--fig-recessive, #E8DCD6)"/>
<rect x="507" y="99" width="9" height="9" fill="var(--fig-recessive, #E8DCD6)"/>
<rect x="507" y="88" width="9" height="9" fill="var(--fig-recessive, #E8DCD6)"/>
<rect x="518" y="165" width="9" height="9" fill="var(--fig-recessive, #E8DCD6)"/>
<rect x="518" y="154" width="9" height="9" fill="var(--fig-recessive, #E8DCD6)"/>
<rect x="518" y="143" width="9" height="9" fill="var(--fig-recessive, #E8DCD6)"/>
<rect x="518" y="132" width="9" height="9" fill="var(--fig-recessive, #E8DCD6)"/>
<rect x="518" y="121" width="9" height="9" fill="var(--fig-recessive, #E8DCD6)"/>
<rect x="518" y="110" width="9" height="9" fill="var(--fig-recessive, #E8DCD6)"/>
<rect x="518" y="99" width="9" height="9" fill="var(--fig-recessive, #E8DCD6)"/>
<rect x="518" y="88" width="9" height="9" fill="var(--fig-recessive, #E8DCD6)"/>
<rect x="529" y="165" width="9" height="9" fill="url(#hatch)"/>
<rect x="552" y="165" width="9" height="9" fill="var(--fig-primary, #A81C2A)"/>
<rect x="552" y="154" width="9" height="9" fill="var(--fig-primary, #A81C2A)"/>
<rect x="552" y="143" width="9" height="9" fill="var(--fig-primary, #A81C2A)"/>
<rect x="552" y="132" width="9" height="9" fill="var(--fig-primary, #A81C2A)"/>
<rect x="552" y="121" width="9" height="9" fill="var(--fig-primary, #A81C2A)"/>
<rect x="552" y="110" width="9" height="9" fill="var(--fig-primary, #A81C2A)"/>
<rect x="552" y="99" width="9" height="9" fill="var(--fig-primary, #A81C2A)"/>
<rect x="552" y="88" width="9" height="9" fill="var(--fig-primary, #A81C2A)"/>
<rect x="563" y="165" width="9" height="9" fill="var(--fig-primary, #A81C2A)"/>
<rect x="563" y="154" width="9" height="9" fill="var(--fig-recessive, #E8DCD6)"/>
<rect x="563" y="143" width="9" height="9" fill="var(--fig-recessive, #E8DCD6)"/>
<rect x="563" y="132" width="9" height="9" fill="var(--fig-recessive, #E8DCD6)"/>
<rect x="563" y="121" width="9" height="9" fill="var(--fig-recessive, #E8DCD6)"/>
<rect x="563" y="110" width="9" height="9" fill="var(--fig-recessive, #E8DCD6)"/>
<rect x="563" y="99" width="9" height="9" fill="var(--fig-recessive, #E8DCD6)"/>
<rect x="563" y="88" width="9" height="9" fill="var(--fig-recessive, #E8DCD6)"/>
<rect x="574" y="165" width="9" height="9" fill="var(--fig-recessive, #E8DCD6)"/>
<rect x="574" y="154" width="9" height="9" fill="url(#hatch)"/>
<rect x="597" y="165" width="9" height="9" fill="var(--fig-primary, #A81C2A)"/>
<rect x="597" y="154" width="9" height="9" fill="var(--fig-primary, #A81C2A)"/>
<rect x="597" y="143" width="9" height="9" fill="var(--fig-primary, #A81C2A)"/>
<rect x="597" y="132" width="9" height="9" fill="var(--fig-primary, #A81C2A)"/>
<rect x="597" y="121" width="9" height="9" fill="var(--fig-primary, #A81C2A)"/>
<rect x="597" y="110" width="9" height="9" fill="var(--fig-primary, #A81C2A)"/>
<rect x="597" y="99" width="9" height="9" fill="var(--fig-primary, #A81C2A)"/>
<rect x="597" y="88" width="9" height="9" fill="var(--fig-primary, #A81C2A)"/>
<rect x="608" y="165" width="9" height="9" fill="var(--fig-primary, #A81C2A)"/>
<rect x="608" y="154" width="9" height="9" fill="var(--fig-primary, #A81C2A)"/>
<rect x="608" y="143" width="9" height="9" fill="var(--fig-primary, #A81C2A)"/>
<rect x="608" y="132" width="9" height="9" fill="var(--fig-primary, #A81C2A)"/>
<rect x="608" y="121" width="9" height="9" fill="var(--fig-primary, #A81C2A)"/>
<rect x="608" y="110" width="9" height="9" fill="var(--fig-primary, #A81C2A)"/>
<rect x="608" y="99" width="9" height="9" fill="var(--fig-primary, #A81C2A)"/>
<rect x="608" y="88" width="9" height="9" fill="var(--fig-recessive, #E8DCD6)"/>
<rect x="619" y="165" width="9" height="9" fill="var(--fig-recessive, #E8DCD6)"/>
<rect x="619" y="154" width="9" height="9" fill="var(--fig-recessive, #E8DCD6)"/>
<rect x="619" y="143" width="9" height="9" fill="var(--fig-recessive, #E8DCD6)"/>
<rect x="619" y="132" width="9" height="9" fill="var(--fig-recessive, #E8DCD6)"/>
<rect x="619" y="121" width="9" height="9" fill="var(--fig-recessive, #E8DCD6)"/>
<rect x="619" y="110" width="9" height="9" fill="var(--fig-recessive, #E8DCD6)"/>
<rect x="619" y="99" width="9" height="9" fill="url(#hatch)"/>
<rect x="642" y="165" width="9" height="9" fill="var(--fig-primary, #A81C2A)"/>
<rect x="642" y="154" width="9" height="9" fill="var(--fig-primary, #A81C2A)"/>
<rect x="642" y="143" width="9" height="9" fill="var(--fig-primary, #A81C2A)"/>
<rect x="642" y="132" width="9" height="9" fill="var(--fig-primary, #A81C2A)"/>
<rect x="642" y="121" width="9" height="9" fill="var(--fig-primary, #A81C2A)"/>
<rect x="642" y="110" width="9" height="9" fill="var(--fig-primary, #A81C2A)"/>
<rect x="642" y="99" width="9" height="9" fill="var(--fig-primary, #A81C2A)"/>
<rect x="642" y="88" width="9" height="9" fill="var(--fig-primary, #A81C2A)"/>
<rect x="653" y="165" width="9" height="9" fill="var(--fig-primary, #A81C2A)"/>
<rect x="653" y="154" width="9" height="9" fill="var(--fig-primary, #A81C2A)"/>
<rect x="653" y="143" width="9" height="9" fill="var(--fig-primary, #A81C2A)"/>
<rect x="653" y="132" width="9" height="9" fill="var(--fig-primary, #A81C2A)"/>
<rect x="653" y="121" width="9" height="9" fill="var(--fig-primary, #A81C2A)"/>
<rect x="653" y="110" width="9" height="9" fill="var(--fig-primary, #A81C2A)"/>
<rect x="653" y="99" width="9" height="9" fill="var(--fig-primary, #A81C2A)"/>
<rect x="653" y="88" width="9" height="9" fill="var(--fig-primary, #A81C2A)"/>
<rect x="664" y="165" width="9" height="9" fill="var(--fig-primary, #A81C2A)"/>
<rect x="664" y="154" width="9" height="9" fill="var(--fig-recessive, #E8DCD6)"/>
<rect x="664" y="143" width="9" height="9" fill="var(--fig-recessive, #E8DCD6)"/>
<rect x="664" y="132" width="9" height="9" fill="var(--fig-recessive, #E8DCD6)"/>
<rect x="664" y="121" width="9" height="9" fill="var(--fig-recessive, #E8DCD6)"/>
<rect x="664" y="110" width="9" height="9" fill="var(--fig-recessive, #E8DCD6)"/>
<rect x="664" y="99" width="9" height="9" fill="url(#hatch)"/>
<rect x="687" y="165" width="9" height="9" fill="var(--fig-primary, #A81C2A)"/>
<rect x="687" y="154" width="9" height="9" fill="var(--fig-primary, #A81C2A)"/>
<rect x="687" y="143" width="9" height="9" fill="var(--fig-primary, #A81C2A)"/>
<rect x="687" y="132" width="9" height="9" fill="var(--fig-primary, #A81C2A)"/>
<rect x="687" y="121" width="9" height="9" fill="var(--fig-primary, #A81C2A)"/>
<rect x="687" y="110" width="9" height="9" fill="var(--fig-primary, #A81C2A)"/>
<rect x="687" y="99" width="9" height="9" fill="var(--fig-primary, #A81C2A)"/>
<rect x="687" y="88" width="9" height="9" fill="var(--fig-primary, #A81C2A)"/>
<rect x="698" y="165" width="9" height="9" fill="var(--fig-primary, #A81C2A)"/>
<rect x="698" y="154" width="9" height="9" fill="var(--fig-primary, #A81C2A)"/>
<rect x="698" y="143" width="9" height="9" fill="var(--fig-primary, #A81C2A)"/>
<rect x="698" y="132" width="9" height="9" fill="var(--fig-primary, #A81C2A)"/>
<rect x="698" y="121" width="9" height="9" fill="var(--fig-primary, #A81C2A)"/>
<rect x="698" y="110" width="9" height="9" fill="var(--fig-primary, #A81C2A)"/>
<rect x="698" y="99" width="9" height="9" fill="var(--fig-recessive, #E8DCD6)"/>
<rect x="698" y="88" width="9" height="9" fill="var(--fig-recessive, #E8DCD6)"/>
<rect x="709" y="165" width="9" height="9" fill="var(--fig-recessive, #E8DCD6)"/>
<rect x="709" y="154" width="9" height="9" fill="var(--fig-recessive, #E8DCD6)"/>
<rect x="709" y="143" width="9" height="9" fill="var(--fig-recessive, #E8DCD6)"/>
<rect x="709" y="132" width="9" height="9" fill="var(--fig-recessive, #E8DCD6)"/>
<rect x="709" y="121" width="9" height="9" fill="var(--fig-recessive, #E8DCD6)"/>
<line x1="73.0" y1="78.0" x2="73.0" y2="180" stroke="var(--fig-signal, #C0272D)" stroke-width="1.5" stroke-dasharray="4 3"/>
<text x="80.0" y="72.0" fill="var(--fig-signal, #C0272D)" font-size="10.5" font-weight="700" letter-spacing="0.11em" text-anchor="start">XBRL INSTANCES APPEAR</text>
<line x1="444.0" y1="52.0" x2="444.0" y2="180" stroke="var(--fig-signal, #C0272D)" stroke-width="1.5" stroke-dasharray="4 3"/>
<text x="451.0" y="46.0" fill="var(--fig-signal, #C0272D)" font-size="10.5" font-weight="700" letter-spacing="0.11em" text-anchor="start">COVER PAGE GAINS A SYMBOL COLUMN</text>
<line x1="24" y1="186" x2="718" y2="186" stroke="var(--fig-rule, #E7DCD6)" stroke-width="1"/>
<text x="45.0" y="204" fill="var(--fig-muted, #7B675C)" font-size="10" text-anchor="middle" font-family="IBM Plex Mono, monospace">10</text>
<text x="95.5" y="204" fill="var(--fig-muted, #7B675C)" font-size="10" text-anchor="middle" font-family="IBM Plex Mono, monospace">11</text>
<text x="146.0" y="204" fill="var(--fig-muted, #7B675C)" font-size="10" text-anchor="middle" font-family="IBM Plex Mono, monospace">12</text>
<text x="196.5" y="204" fill="var(--fig-muted, #7B675C)" font-size="10" text-anchor="middle" font-family="IBM Plex Mono, monospace">13</text>
<text x="241.5" y="204" fill="var(--fig-muted, #7B675C)" font-size="10" text-anchor="middle" font-family="IBM Plex Mono, monospace">14</text>
<text x="286.5" y="204" fill="var(--fig-muted, #7B675C)" font-size="10" text-anchor="middle" font-family="IBM Plex Mono, monospace">15</text>
<text x="331.5" y="204" fill="var(--fig-muted, #7B675C)" font-size="10" text-anchor="middle" font-family="IBM Plex Mono, monospace">16</text>
<text x="376.5" y="204" fill="var(--fig-muted, #7B675C)" font-size="10" text-anchor="middle" font-family="IBM Plex Mono, monospace">17</text>
<text x="421.5" y="204" fill="var(--fig-muted, #7B675C)" font-size="10" text-anchor="middle" font-family="IBM Plex Mono, monospace">18</text>
<text x="466.5" y="204" fill="var(--fig-muted, #7B675C)" font-size="10" text-anchor="middle" font-family="IBM Plex Mono, monospace">19</text>
<text x="517.0" y="204" fill="var(--fig-muted, #7B675C)" font-size="10" text-anchor="middle" font-family="IBM Plex Mono, monospace">20</text>
<text x="567.5" y="204" fill="var(--fig-muted, #7B675C)" font-size="10" text-anchor="middle" font-family="IBM Plex Mono, monospace">21</text>
<text x="612.5" y="204" fill="var(--fig-muted, #7B675C)" font-size="10" text-anchor="middle" font-family="IBM Plex Mono, monospace">22</text>
<text x="657.5" y="204" fill="var(--fig-muted, #7B675C)" font-size="10" text-anchor="middle" font-family="IBM Plex Mono, monospace">23</text>
<text x="702.5" y="204" fill="var(--fig-muted, #7B675C)" font-size="10" text-anchor="middle" font-family="IBM Plex Mono, monospace">24</text>
<rect x="24" y="223" width="10" height="10" fill="var(--fig-primary, #A81C2A)" stroke="var(--fig-rule, #E7DCD6)" stroke-width="0.5"/>
<text x="40" y="232" fill="var(--fig-muted, #7B675C)" font-size="11.5">Resolved to a traded symbol (149)</text>
<rect x="257.65" y="223" width="10" height="10" fill="var(--fig-recessive, #E8DCD6)" stroke="var(--fig-rule, #E7DCD6)" stroke-width="0.5"/>
<text x="273.65" y="232" fill="var(--fig-muted, #7B675C)" font-size="11.5">Unreachable from public data (186)</text>
<rect x="497.34999999999997" y="223" width="10" height="10" fill="url(#hatch)" stroke="var(--fig-rule, #E7DCD6)" stroke-width="0.5"/>
<text x="513.3499999999999" y="232" fill="var(--fig-muted, #7B675C)" font-size="11.5">Not a Merton object (11)</text>
</svg>